<svg xmlns="http://www.w3.org/2000/svg" viewBox="0 0 1200 900" role="img" aria-label="Operational command center for Dominican companies">
  <defs><radialGradient id="g" cx="50%" cy="48%" r="58%"><stop offset="0" stop-color="#99F6E4" stop-opacity=".38"/><stop offset=".55" stop-color="#A5B4FC" stop-opacity=".12"/><stop offset="1" stop-color="#0F1115"/></radialGradient></defs>
  <rect width="1200" height="900" fill="#0F1115"/><rect width="1200" height="900" fill="url(#g)"/>
  <g fill="#161920" stroke="#99F6E4" stroke-opacity=".55"><rect x="430" y="210" width="340" height="230" rx="28"/><rect x="230" y="535" width="220" height="130" rx="20"/><rect x="760" y="535" width="220" height="130" rx="20"/><rect x="120" y="245" width="210" height="120" rx="20"/><rect x="870" y="245" width="210" height="120" rx="20"/></g>
  <g fill="none" stroke="#99F6E4" stroke-opacity=".38" stroke-width="3"><path d="M600 440v95M450 600h310M430 325H330M770 325h100"/><path d="M225 365C300 520 430 525 600 440M975 365C900 520 770 525 600 440"/></g>
  <g fill="#E2E8F0" fill-opacity=".72" font-family="IBM Plex Mono, monospace" font-size="28"><text x="505" y="330">Odoo ERP</text><text x="286" y="610">e-CF</text><text x="816" y="610">DGII</text><text x="170" y="315">POS</text><text x="930" y="315">WiFi</text></g>
</svg>
